<?xml version="1.0" encoding="UTF-8"?>
<svg width="12px" height="16px" viewBox="0 0 12 16" version="1.1" xmlns="http://www.w3.org/2000/svg" xmlns:xlink="http://www.w3.org/1999/xlink">
    <!-- Generator: Sketch 49.3 (51167) - http://www.bohemiancoding.com/sketch -->
    <title>Shape</title>
    <desc>Created with Sketch.</desc>
    <defs></defs>
    <g id="Page-1" stroke="none" stroke-width="1" fill="none" fill-rule="evenodd">
        <g id="Desktop-HD-Copy" transform="translate(-1096.000000, -88.000000)" fill="#64A70B" fill-rule="nonzero">
            <g id="Header">
                <g id="icons8-lock" transform="translate(1096.000000, 88.000000)">
                    <path d="M6,0 C3.69375,0 1.8,1.89375 1.8,4.2 L1.8,6 L0,6 L0,15.6 L12,15.6 L12,6 L10.2,6 L10.2,4.2 C10.2,1.89375 8.30625,0 6,0 Z M6,1.2 C7.6523436,1.2 9,2.5476564 9,4.2 L9,6 L3,6 L3,4.2 C3,2.5476564 4.3476564,1.2 6,1.2 Z M1.2,7.2 L10.8,7.2 L10.8,14.4 L1.2,14.4 L1.2,7.2 Z" id="Shape"></path>
                </g>
            </g>
        </g>
    </g>
</svg>