<?xml version="1.0" encoding="UTF-8"?>
<svg width="150px" height="37px" viewBox="0 0 150 37" version="1.1" xmlns="http://www.w3.org/2000/svg" xmlns:xlink="http://www.w3.org/1999/xlink">
    <!-- Generator: Sketch 49.3 (51167) - http://www.bohemiancoding.com/sketch -->
    <title>georgian-college-logo-2017</title>
    <desc>Created with Sketch.</desc>
    <defs></defs>
    <g id="Page-1" stroke="none" stroke-width="1" fill="none" fill-rule="evenodd">
        <g id="Desktop-HD-Copy" transform="translate(-215.000000, -1373.000000)">
            <g id="georgian-college-logo-2017" transform="translate(200.000000, 1363.000000)">
                <g id="Group" transform="translate(15.000000, 10.000000)" fill-rule="nonzero">
                    <g transform="translate(33.227848, 7.336207)" fill="#FFFFFF" id="Shape">
                        <path d="M15,11.5465517 L11.7405063,11.5465517 L11.7405063,14.6724138 L15,14.6724138 L15,18.2448276 C14.1772152,18.6275862 12.9113924,18.8827586 11.4873418,18.8827586 C10.9177215,18.8827586 10.3797468,18.8508621 9.87341772,18.7551724 C6.36075949,18.1172414 4.33544304,15.3422414 4.33544304,11.3551724 C4.33544304,6.85775862 7.02531646,3.73189655 12.056962,3.73189655 C14.3037975,3.73189655 16.2025316,4.30603448 17.8481013,5.13534483 L17.8481013,1.56293103 C16.2658228,0.988793103 14.2088608,0.510344828 11.7721519,0.510344828 C4.81012658,0.510344828 0.253164557,5.23103448 0.253164557,11.6422414 C0.253164557,17.287931 3.79746835,21.562069 9.87341772,22.1043103 C10.3164557,22.1362069 10.7594937,22.1681034 11.2025316,22.1681034 C14.1139241,22.1681034 16.9303797,21.4344828 18.8291139,20.4775862 L18.8291139,14.7362069 L18.8291139,11.6103448 L15,11.6103448 L15,11.5465517 Z"></path>
                        <path d="M21.2341772,14.2577586 C21.2341772,9.69655172 23.7025316,6.28362069 28.0063291,6.28362069 C32.2468354,6.28362069 34.6835443,9.34568966 34.6835443,14.3853448 L34.6835443,15.2784483 L25.0316456,15.2784483 C25.0949367,17.6068966 26.7405063,19.137931 29.2721519,19.137931 C30.7911392,19.137931 31.9936709,18.7232759 33.1012658,18.1172414 L34.2405063,20.7327586 C32.6582278,21.7215517 30.7594937,22.1362069 28.9240506,22.1362069 C23.4177215,22.1362069 21.2341772,18.3405172 21.2341772,14.2577586 Z M30.8227848,12.6310345 C30.7594937,10.9086207 29.9367089,9.21810345 27.9113924,9.21810345 C26.0443038,9.21810345 25,10.812931 25,12.6310345 L30.8227848,12.6310345 Z"></path>
                        <path d="M36.3924051,14.1939655 C36.3924051,9.63275862 39.4303797,6.28362069 43.8924051,6.28362069 C48.3860759,6.28362069 51.4240506,9.66465517 51.4240506,14.1939655 C51.4240506,18.7551724 48.3544304,22.1362069 43.8924051,22.1362069 C39.4303797,22.1362069 36.3924051,18.7551724 36.3924051,14.1939655 Z M47.5316456,14.1939655 C47.5316456,11.4189655 46.2974684,9.34568966 43.8924051,9.34568966 C41.5189873,9.34568966 40.2531646,11.387069 40.2531646,14.1939655 C40.2531646,17.0327586 41.4873418,19.0741379 43.8924051,19.0741379 C46.2974684,19.0741379 47.5316456,17.0008621 47.5316456,14.1939655 Z"></path>
                        <path d="M53.7341772,6.66637931 L56.9303797,6.66637931 L57.3417722,8.35689655 C58.7025316,6.98534483 59.9683544,6.28362069 61.4873418,6.28362069 C62.1835443,6.28362069 63.0063291,6.475 63.6075949,6.88965517 L62.278481,10.1431034 C61.6139241,9.72844828 61.0126582,9.63275862 60.5696203,9.63275862 C59.5886076,9.63275862 58.7658228,10.0474138 57.5,11.1318966 L57.5,21.8491379 L53.7025316,21.8491379 L53.7025316,6.66637931 L53.7341772,6.66637931 Z"></path>
                        <path d="M62.943038,24.975 C62.943038,23.3163793 64.0822785,21.9767241 65.6329114,21.3068966 C65,20.9241379 64.6518987,20.2224138 64.6518987,19.425 C64.6518987,18.5318966 65.221519,17.4474138 66.4556962,16.5543103 C64.8734177,15.6293103 63.9556962,13.875 63.9556962,11.8336207 C63.9556962,9.05862069 65.9810127,6.25172414 70.0949367,6.25172414 C71.4240506,6.25172414 72.4683544,6.57068966 73.1012658,6.92155172 C73.2594937,6.98534483 73.3544304,6.95344828 73.4810127,6.85775862 C74.2721519,6.06034483 75.2531646,5.55 77.1202532,5.55 C77.4683544,5.55 77.9113924,5.58189655 78.1329114,5.6137931 L77.3734177,8.35689655 C77.0253165,8.2612069 76.6139241,8.19741379 76.2658228,8.19741379 C75.9493671,8.19741379 75.4746835,8.2612069 75.1582278,8.45258621 C76.0443038,9.40948276 76.4873418,10.6853448 76.4873418,12.0568966 C76.4873418,15.4698276 73.9240506,17.6706897 70.2531646,17.6706897 C69.556962,17.6706897 68.9240506,17.575 68.4177215,17.4155172 C68.1329114,17.8939655 68.0379747,18.212931 68.0379747,18.5318966 C68.0379747,21.2431034 77.943038,18.7232759 77.943038,24.4008621 C77.943038,27.1439655 75.221519,29.4086207 70,29.4086207 C65.5063291,29.4086207 62.943038,27.5905172 62.943038,24.975 Z M74.2721519,24.8474138 C74.2721519,22.6784483 69.5886076,23.125 67.5632911,22.3275862 C67.0886076,22.6784483 66.3607595,23.3163793 66.3607595,24.3051724 C66.3607595,25.8043103 67.943038,26.7293103 70.4746835,26.7293103 C72.721519,26.7293103 74.2721519,25.9637931 74.2721519,24.8474138 Z M72.8481013,11.9931034 C72.8481013,10.4939655 71.835443,9.15431034 70.1582278,9.15431034 C68.6708861,9.15431034 67.5632911,10.1431034 67.5632911,11.9612069 C67.5632911,13.4603448 68.5126582,14.7681034 70.1898734,14.7681034 C71.7088608,14.8 72.8481013,13.8431034 72.8481013,11.9931034 Z"></path>
                        <path d="M79.9050633,2.29655172 C79.9050633,1.02068966 80.8860759,3.55271368e-15 82.2151899,3.55271368e-15 C83.5443038,3.55271368e-15 84.556962,0.988793103 84.556962,2.29655172 C84.556962,3.54051724 83.5443038,4.5612069 82.2151899,4.5612069 C80.8860759,4.59310345 79.9050633,3.57241379 79.9050633,2.29655172 Z M80.3164557,6.66637931 L84.1455696,6.66637931 L84.1455696,21.8491379 L80.3164557,21.8491379 L80.3164557,6.66637931 Z"></path>
                        <path d="M96.3924051,20.3818966 C95.3164557,21.3706897 93.9556962,22.1362069 92.056962,22.1362069 C89.2088608,22.1362069 87.056962,20.2224138 87.056962,17.287931 C87.056962,15.2465517 88.0379747,13.9387931 89.5886076,13.1413793 C90.6329114,12.5991379 91.9303797,12.3439655 93.4810127,12.2801724 L96.0443038,12.1844828 L96.0443038,11.7060345 C96.0443038,9.95172414 94.9050633,9.1862069 93.164557,9.1862069 C91.6772152,9.1862069 90.3164557,9.66465517 89.2088608,10.2387931 L87.9746835,7.78275862 C89.7468354,6.79396552 91.7088608,6.28362069 93.7974684,6.28362069 C97.8481013,6.28362069 99.8417722,8.13362069 99.8417722,11.8017241 L99.8417722,17.9577586 C99.8417722,19.712069 99.9050633,21.0517241 100.126582,21.8491379 L96.9620253,21.8491379 L96.3924051,20.3818966 Z M94.0189873,14.8318966 C93.0379747,14.8637931 92.3417722,15.0232759 91.835443,15.3103448 C91.2025316,15.6612069 90.9177215,16.2672414 90.9177215,17.0327586 C90.9177215,18.3405172 91.7721519,19.1060345 93.1329114,19.1060345 C94.5253165,19.1060345 95.5379747,18.4043103 96.0443038,17.9896552 L96.0443038,14.7681034 L94.0189873,14.8318966 Z"></path>
                        <path d="M103.006329,6.66637931 L106.265823,6.66637931 L106.64557,8.35689655 C108.227848,7.11293103 109.936709,6.28362069 111.803797,6.28362069 C114.177215,6.28362069 116.64557,7.4637931 116.64557,11.8017241 L116.64557,21.8491379 L112.816456,21.8491379 L112.816456,12.9818966 C112.816456,11.1318966 112.436709,9.60086207 110.506329,9.60086207 C109.272152,9.60086207 107.943038,10.2706897 106.803797,11.1956897 L106.803797,21.8172414 L103.006329,21.8172414 L103.006329,6.66637931 Z"></path>
                    </g>
                    <g id="Shape">
                        <path d="M19.8417722,0 C17.2151899,0 14.8101266,1.08448276 13.1012658,2.80689655 C12.6582278,3.25344828 12.2468354,3.7637931 11.8987342,4.30603448 C13.4177215,3.28534483 15.221519,2.7112069 17.1835443,2.7112069 L26.7405063,2.7112069 L26.7405063,12.3439655 C26.7405063,14.2896552 26.1392405,16.1396552 25.1582278,17.6387931 C27.721519,15.9163793 29.4303797,12.95 29.4303797,9.63275862 L29.4303797,0 L19.8417722,0 Z" fill="#64A70B"></path>
                        <path d="M14.7468354,5.16724138 C12.1202532,5.16724138 9.71518987,6.25172414 8.00632911,7.97413793 C7.56329114,8.42068966 7.1835443,8.89913793 6.83544304,9.40948276 C8.35443038,8.3887931 10.1898734,7.78275862 12.1518987,7.78275862 L21.7088608,7.78275862 L21.7088608,17.4155172 C21.7088608,19.3931034 21.1075949,21.2431034 20.0949367,22.7741379 C22.6582278,21.0517241 24.335443,18.1172414 24.335443,14.7681034 L24.335443,5.16724138 L14.7468354,5.16724138 Z" fill="#FFFFFF"></path>
                        <path d="M19.2405063,10.2706897 L19.2405063,19.9034483 C19.2405063,25.2301724 14.9683544,29.5362069 9.6835443,29.5362069 L0.126582278,29.5362069 L0.126582278,19.8715517 C0.126582278,14.5448276 4.39873418,10.2387931 9.6835443,10.2387931 L19.2405063,10.2387931 L19.2405063,10.2706897 Z M6.61392405,26.6974138 C7.21518987,26.3784483 7.40506329,25.9956897 7.40506329,25.0387931 L7.40506329,22.2 L4.58860759,22.2 C3.48101266,22.2 2.94303797,22.4232759 2.59493671,22.9974138 L2.53164557,23.0612069 L6.51898734,23.0612069 L6.51898734,26.7293103 L6.61392405,26.6974138 Z M10.6012658,27.4948276 C11.3291139,27.0801724 11.5189873,26.7612069 11.5506329,25.7724138 L11.5506329,17.9896552 L3.98734177,17.9896552 C2.75316456,17.9896552 2.40506329,18.4043103 2.05696203,18.9146552 L1.99367089,19.0103448 L10.5063291,19.0103448 L10.5063291,27.5267241 L10.6012658,27.4948276 Z M14.7468354,24.9431034 C15.4746835,24.4646552 15.664557,24.2094828 15.7278481,23.2206897 L15.7278481,13.7793103 L6.32911392,13.7793103 C5.12658228,13.7793103 4.62025316,14.3215517 4.33544304,14.7362069 L4.2721519,14.8318966 L14.6518987,14.8318966 L14.6518987,24.975 L14.7468354,24.9431034 Z" fill="#64A70B"></path>
                    </g>
                </g>
                <rect id="Rectangle-path" x="0" y="0" width="180" height="61"></rect>
            </g>
        </g>
    </g>
</svg>