<?xml version="1.0" encoding="UTF-8"?>
<svg width="156px" height="38px" viewBox="0 0 156 38" version="1.1" xmlns="http://www.w3.org/2000/svg" xmlns:xlink="http://www.w3.org/1999/xlink">
    <!-- Generator: Sketch 49.3 (51167) - http://www.bohemiancoding.com/sketch -->
    <title>georgian-college-logo-colour-2017</title>
    <desc>Created with Sketch.</desc>
    <defs></defs>
    <g id="Page-1" stroke="none" stroke-width="1" fill="none" fill-rule="evenodd">
        <g id="Desktop-HD-Copy" transform="translate(-250.000000, -18.000000)" fill-rule="nonzero">
            <g id="georgian-college-logo-colour-2017" transform="translate(250.000000, 18.000000)">
                <g id="Group" transform="translate(35.000000, 7.000000)" fill="#004B87">
                    <path d="M15.3798985,12.1991903 L12.0017259,12.1991903 L12.0017259,15.5 L15.3798985,15.5 L15.3798985,19.2651822 C14.52,19.6668016 13.1932995,19.942915 11.7437563,19.942915 C11.1541117,19.942915 10.5890355,19.8927126 10.0608122,19.7923077 C6.40010152,19.1145749 4.29949239,16.1902834 4.29949239,11.9983806 C4.29949239,7.26680162 7.07573604,3.9659919 12.333401,3.9659919 C14.6796954,3.9659919 16.6328934,4.56842105 18.3526904,5.44696356 L18.3526904,1.65668016 C16.6943147,1.05425101 14.5814213,0.539676113 12.0385787,0.539676113 C4.80314721,0.539676113 0.0737055838,5.49716599 0.0737055838,12.2619433 C0.0737055838,18.2234818 3.75898477,22.7040486 10.0608122,23.2688259 C10.5153299,23.3064777 10.9698477,23.3315789 11.448934,23.3315789 C14.4831472,23.3315789 17.3945178,22.5534413 19.3845685,21.5368421 L19.3845685,15.4874494 L19.3845685,12.1866397 L15.3798985,12.1866397 L15.3798985,12.1991903 Z" id="Shape"></path>
                    <path d="M21.8537056,15.0356275 C21.8537056,10.2412955 24.433401,6.62672065 28.8925888,6.62672065 C33.2903553,6.62672065 35.833198,9.86477733 35.833198,15.1736842 L35.833198,16.1149798 L25.8215228,16.1149798 C25.8829442,18.5748988 27.6027411,20.1688259 30.2192893,20.1688259 C31.8039594,20.1688259 33.0569543,19.7295547 34.1871066,19.0894737 L35.3786802,21.8631579 C33.7325888,22.9048583 31.7793909,23.3441296 29.8630457,23.3441296 C24.1385787,23.3315789 21.8537056,19.3530364 21.8537056,15.0356275 Z M31.8408122,13.3036437 C31.7793909,11.4838057 30.9194924,9.68906883 28.8311675,9.68906883 C26.8779695,9.68906883 25.7846701,11.3834008 25.7846701,13.3036437 L31.8408122,13.3036437 Z" id="Shape"></path>
                    <path d="M37.6144162,14.9603239 C37.6144162,10.1659919 40.7591878,6.62672065 45.4149239,6.62672065 C50.0706599,6.62672065 53.2522843,10.1659919 53.2522843,14.9603239 C53.2522843,19.7546559 50.0829442,23.3315789 45.4149239,23.3315789 C40.7591878,23.3315789 37.6144162,19.7546559 37.6144162,14.9603239 Z M49.1861929,14.9603239 C49.1861929,12.0234818 47.8963452,9.86477733 45.4149239,9.86477733 C42.9335025,9.86477733 41.6436548,12.0234818 41.6436548,14.9603239 C41.6436548,17.9348178 42.9335025,20.0935223 45.4149239,20.0935223 C47.8963452,20.0935223 49.1861929,17.9348178 49.1861929,14.9603239 Z" id="Shape"></path>
                    <path d="M55.6231472,7.02834008 L58.964467,7.02834008 L59.3944162,8.82307692 C60.8193909,7.36720648 62.1092386,6.62672065 63.6939086,6.62672065 C64.4186802,6.62672065 65.2785787,6.82753036 65.9050761,7.26680162 L64.5169543,10.6680162 C63.8290355,10.2287449 63.1902538,10.1283401 62.735736,10.1283401 C61.7161421,10.1283401 60.8562437,10.5676113 59.5663959,11.7222672 L59.5663959,23.0052632 L55.6354315,23.0052632 L55.6231472,7.02834008 Z" id="Shape"></path>
                    <path d="M65.1925888,26.3060729 C65.1925888,24.5489879 66.3841624,23.1684211 68.0056853,22.4530364 C67.342335,22.051417 66.9860914,21.3109312 66.9860914,20.4574899 C66.9860914,19.5161943 67.575736,18.3615385 68.8655838,17.4453441 C67.2072081,16.4663968 66.2490355,14.6089069 66.2490355,12.4878543 C66.2490355,9.55101215 68.3619289,6.61417004 72.6245685,6.61417004 C74.0126904,6.61417004 75.1059898,6.95303644 75.7324873,7.32955466 C75.904467,7.39230769 76.0027411,7.36720648 76.1255838,7.26680162 C76.9486294,6.42591093 77.9805076,5.88623482 79.8968528,5.88623482 C80.2653807,5.88623482 80.7198985,5.92388664 80.9532995,5.94898785 L80.1671066,8.84817814 C79.7985787,8.74777328 79.3686294,8.67246964 79.0123858,8.67246964 C78.6807107,8.67246964 78.1893401,8.74777328 77.857665,8.948583 C78.7789848,9.96518219 79.2457868,11.3080972 79.2457868,12.7263158 C79.2457868,16.3032389 76.5678173,18.6376518 72.7719797,18.6376518 C72.0472081,18.6376518 71.3838579,18.537247 70.8556345,18.3615385 C70.5608122,18.8635628 70.4625381,19.2024291 70.4625381,19.5412955 C70.4625381,22.4153846 80.744467,19.7421053 80.744467,25.7161943 C80.744467,28.6153846 77.906802,30.9874494 72.4894416,30.9874494 C67.8705584,31 65.1925888,29.0797571 65.1925888,26.3060729 Z M76.9609137,26.1680162 C76.9609137,23.8712551 72.1086294,24.3481781 69.995736,23.5072874 C69.5043655,23.8838057 68.7427411,24.5489879 68.7427411,25.6032389 C68.7427411,27.1846154 70.3888325,28.1761134 73.0053807,28.1761134 C75.3762437,28.1635628 76.9609137,27.3477733 76.9609137,26.1680162 Z M75.4990863,12.6635628 C75.4990863,11.0821862 74.4426396,9.66396761 72.6859898,9.66396761 C71.1381726,9.66396761 69.9711675,10.705668 69.9711675,12.6384615 C69.9711675,14.2323887 70.9661929,15.6129555 72.7105584,15.6129555 C74.319797,15.6004049 75.4990863,14.5963563 75.4990863,12.6635628 Z" id="Shape"></path>
                    <path d="M82.8205076,2.44736842 C82.8205076,1.09190283 83.8401015,0.0125506073 85.2282234,0.0125506073 C86.6163452,0.0125506073 87.6727919,1.06680162 87.6727919,2.44736842 C87.6727919,3.76518219 86.6163452,4.84453441 85.2282234,4.84453441 C83.8523858,4.84453441 82.8205076,3.80283401 82.8205076,2.44736842 Z M83.2504569,7.02834008 L87.2182741,7.02834008 L87.2182741,23.0052632 L83.2504569,23.0052632 L83.2504569,7.02834008 Z" id="Shape"></path>
                    <path d="M99.9447716,21.4740891 C98.8269036,22.5157895 97.4019289,23.3315789 95.448731,23.3315789 C92.4759391,23.3315789 90.2524873,21.3109312 90.2524873,18.2360324 C90.2524873,16.0773279 91.2720812,14.7218623 92.8936041,13.8809717 C93.9869036,13.3036437 95.3381726,13.040081 96.9228426,12.9647773 L99.6008122,12.8643725 L99.6008122,12.3623482 C99.6008122,10.5048583 98.4092386,9.70161943 96.5911675,9.70161943 C95.0433503,9.70161943 93.6183756,10.2036437 92.4882234,10.8186235 L91.1983756,8.22064777 C93.0410152,7.16639676 95.0679188,6.63927126 97.2422335,6.63927126 C101.443452,6.63927126 103.519492,8.59716599 103.519492,12.4502024 L103.519492,18.9388664 C103.519492,20.7963563 103.580914,22.1769231 103.814315,23.0303644 L100.509848,23.0303644 L99.9447716,21.4740891 Z M97.4879188,15.6380567 C96.4683249,15.6757085 95.731269,15.8388664 95.2030457,16.140081 C94.5396954,16.5165992 94.2448731,17.1566802 94.2448731,17.959919 C94.2448731,19.3404858 95.1416244,20.1562753 96.566599,20.1562753 C98.0161421,20.1562753 99.0725888,19.4157895 99.6008122,18.9765182 L99.6008122,15.562753 L97.4879188,15.6380567 Z" id="Shape"></path>
                    <path d="M106.836244,7.02834008 L110.202132,7.02834008 L110.595228,8.82307692 C112.253604,7.50526316 113.99797,6.62672065 115.951168,6.62672065 C118.432589,6.62672065 120.975431,7.86923077 120.975431,12.4376518 L120.975431,23.0052632 L117.007614,23.0052632 L117.007614,13.6801619 C117.007614,11.7222672 116.614518,10.1283401 114.599898,10.1283401 C113.310051,10.1283401 111.921929,10.8311741 110.767208,11.8226721 L110.767208,22.9927126 L106.836244,22.9927126 L106.836244,7.02834008 Z" id="Shape"></path>
                </g>
                <g id="Group">
                    <path d="M21.0190153,0.0871485944 C18.2173175,0.0871485944 15.6920204,1.22008032 13.8451613,3.037751 C13.3677419,3.51084337 12.9405772,4.03373494 12.5636672,4.5939759 C14.1718166,3.53574297 16.0940577,2.91325301 18.1670628,2.91325301 L28.3059423,2.91325301 L28.3059423,12.960241 C28.3059423,15.0144578 27.6777589,16.9192771 26.6098472,18.5004016 C29.3487267,16.6951807 31.1578947,13.6200803 31.1578947,10.1216867 L31.1578947,0.0871485944 L21.0190153,0.0871485944 Z" id="Shape" fill="#64A70B"></path>
                    <path d="M15.5789474,5.47791165 C12.7898132,5.47791165 10.2519525,6.59839357 8.41765705,8.41606426 C7.95280136,8.87670683 7.52563667,9.38714859 7.16129032,9.93493976 C8.76943973,8.86425703 10.7168081,8.22931727 12.8023769,8.22931727 L22.9412564,8.22931727 L22.9412564,18.2763052 C22.9412564,20.3429719 22.313073,22.260241 21.220034,23.8662651 C23.9337861,22.0610442 25.7178268,18.9983936 25.7178268,15.5248996 L25.7178268,5.47791165 L15.5789474,5.47791165 Z" id="Shape" fill="#004B87"></path>
                    <path d="M20.3531409,10.7939759 L20.3531409,20.8409639 C20.3531409,26.3935743 15.817657,30.8879518 10.2142615,30.8879518 L0.0753820034,30.8879518 L0.0753820034,20.8409639 C0.0753820034,15.2883534 4.61086587,10.7939759 10.2142615,10.7939759 L20.3531409,10.7939759 Z M6.94770798,27.9497992 C7.58845501,27.6136546 7.78947368,27.215261 7.78947368,26.2068273 L7.78947368,23.2437751 L4.79932088,23.2437751 C3.63089983,23.2437751 3.04040747,23.4803213 2.67606112,24.0779116 L2.61324278,24.1899598 L6.84719864,24.1899598 L6.84719864,28.0120482 L6.94770798,27.9497992 Z M11.1942275,28.8088353 C11.9606112,28.3855422 12.1490662,28.0369478 12.1993209,27.0160643 L12.1993209,18.8863454 L4.17113752,18.8863454 C2.86451613,18.8863454 2.48760611,19.3096386 2.12325976,19.8574297 L2.04787776,19.9694779 L11.0811545,19.9694779 L11.0811545,28.8835341 L11.1942275,28.8088353 Z M15.6040747,26.1321285 C16.3704584,25.6216867 16.5714771,25.3726908 16.6342954,24.3269076 L16.6342954,14.4915663 L6.65874363,14.4915663 C5.38981324,14.4915663 4.83701188,15.064257 4.53548387,15.5 L4.46010187,15.6120482 L15.5035654,15.6120482 L15.5035654,26.2068273 L15.6040747,26.1321285 Z" id="Shape" fill="#64A70B"></path>
                </g>
            </g>
        </g>
    </g>
</svg>