<?xml version="1.0" encoding="UTF-8"?>
<svg width="74px" height="74px" viewBox="0 0 74 74" version="1.1" xmlns="http://www.w3.org/2000/svg" xmlns:xlink="http://www.w3.org/1999/xlink">
    <!-- Generator: Sketch 49.3 (51167) - http://www.bohemiancoding.com/sketch -->
    <title>Shape</title>
    <desc>Created with Sketch.</desc>
    <defs></defs>
    <g id="Page-1" stroke="none" stroke-width="1" fill="none" fill-rule="evenodd">
        <g id="Desktop-HD-Copy" transform="translate(-354.000000, -232.000000)" fill="#64A70B" fill-rule="nonzero">
            <g id="icons8-nothing_found" transform="translate(354.000000, 232.000000)">
                <path d="M45.2141009,0 C29.3481222,0 16.4282018,12.9199204 16.4282018,28.7858991 C16.4282018,35.6900185 18.8795025,42.0206652 22.9500071,46.9907321 L0,69.9294954 L4.0705046,74 L27.0092679,51.0499929 C31.9793348,55.1205004 38.3099844,57.5717982 45.2141009,57.5717982 C61.0800796,57.5717982 74,44.6518778 74,28.7858991 C74,12.9199204 61.0800796,0 45.2141009,0 Z M45.2141009,5.75717982 C57.9653561,5.75717982 68.2428202,16.0346468 68.2428202,28.7858991 C68.2428202,41.5371543 57.9653561,51.8146183 45.2141009,51.8146183 C32.4628486,51.8146183 22.1853817,41.5371543 22.1853817,28.7858991 C22.1853817,16.0346468 32.4628486,5.75717982 45.2141009,5.75717982 Z M36.5783312,20.1501294 C34.9928586,20.1501294 33.6997413,21.4432466 33.6997413,23.0287193 C33.6997413,24.6141919 34.9928586,25.9073092 36.5783312,25.9073092 C38.1638038,25.9073092 39.4569211,24.6141919 39.4569211,23.0287193 C39.4569211,21.4432466 38.1638038,20.1501294 36.5783312,20.1501294 Z M53.8498706,20.1501294 C52.264398,20.1501294 50.9712807,21.4432466 50.9712807,23.0287193 C50.9712807,24.6141919 52.264398,25.9073092 53.8498706,25.9073092 C55.4353433,25.9073092 56.7284606,24.6141919 56.7284606,23.0287193 C56.7284606,21.4432466 55.4353433,20.1501294 53.8498706,20.1501294 Z M45.2141009,31.664489 C38.8609638,31.664489 34.6892566,35.2514826 34.6892566,35.2514826 C33.8796532,35.9036617 33.4973419,36.9606454 33.6884975,37.9951386 C33.8684094,39.0183881 34.6105444,39.8729695 35.6000597,40.199059 C36.589575,40.5363923 37.6915366,40.3002587 38.4674058,39.591855 C38.4674058,39.591855 40.941194,37.4216688 45.2141009,37.4216688 C49.4870078,37.4216688 51.960796,39.591855 51.960796,39.591855 C52.7366652,40.3002587 53.8386269,40.5363923 54.8281422,40.199059 C55.8176574,39.8729695 56.5597925,39.0183881 56.7397043,37.9951386 C56.9308628,36.9606454 56.5485487,35.9036617 55.7389453,35.2514826 C55.7389453,35.2514826 51.5672381,31.664489 45.2141009,31.664489 Z" id="Shape"></path>
            </g>
        </g>
    </g>
</svg>